<?xml version="1.0" encoding="UTF-8" standalone="no"?>
<!-- Created with Inkscape (http://www.inkscape.org/) -->

<svg
   width="86.683006mm"
   height="87.305mm"
   viewBox="0 0 86.683006 87.305001"
   version="1.1"
   id="svg1"
   inkscape:version="1.3 (0e150ed6c4, 2023-07-21)"
   sodipodi:docname="logo_white_on_bluegreen.svg"
   xmlns:inkscape="http://www.inkscape.org/namespaces/inkscape"
   xmlns:sodipodi="http://sodipodi.sourceforge.net/DTD/sodipodi-0.dtd"
   xmlns="http://www.w3.org/2000/svg"
   xmlns:svg="http://www.w3.org/2000/svg">
  <sodipodi:namedview
     id="namedview1"
     pagecolor="#ffffff"
     bordercolor="#666666"
     borderopacity="1.0"
     inkscape:showpageshadow="2"
     inkscape:pageopacity="0.0"
     inkscape:pagecheckerboard="0"
     inkscape:deskcolor="#d1d1d1"
     inkscape:document-units="mm"
     inkscape:zoom="2.0485264"
     inkscape:cx="145.7145"
     inkscape:cy="177.44463"
     inkscape:window-width="1920"
     inkscape:window-height="1017"
     inkscape:window-x="-8"
     inkscape:window-y="-8"
     inkscape:window-maximized="1"
     inkscape:current-layer="layer1"
     showgrid="false"
     inkscape:export-bgcolor="#159898ff">
    <inkscape:page
       x="0"
       y="0"
       width="86.683006"
       height="87.305"
       id="page1"
       margin="0"
       bleed="0"
       inkscape:export-filename="logo_white_on_bluegreen.png"
       inkscape:export-xdpi="96"
       inkscape:export-ydpi="96" />
  </sodipodi:namedview>
  <defs
     id="defs1" />
  <g
     inkscape:label="Ebene 1"
     inkscape:groupmode="layer"
     id="layer1"
     transform="translate(11.55384,-83.274971)">
    <g
       id="g2">
      <rect
         style="fill:#159898;stroke-width:0.3"
         id="rect1"
         width="86.683006"
         height="87.305"
         x="-11.553838"
         y="83.274971" />
    </g>
    <g
       id="g3">
      <g
         id="g1"
         transform="translate(-0.02659288)">
        <g
           id="g4-1-1"
           transform="translate(-82.533805,-35.025152)"
           style="fill:#ffffff;fill-opacity:1;stroke:none">
          <path
             id="path1-1-6"
             style="fill:#ffffff;fill-opacity:1;stroke:none;stroke-width:0.264583px;stroke-linecap:butt;stroke-linejoin:miter;stroke-opacity:1"
             d="m 79.65922,160.68167 c -2.395975,0.045 -4.826315,0.70697 -7.12618,2.35541 l 1.60197,2.55591 c 4.711954,-2.83373 9.844764,-1.42169 14.083378,0.70745 a 31.5,31.5 0 0 1 -2.684591,-4.63176 c -1.869969,-0.61666 -3.857492,-1.02493 -5.874577,-0.98701 z m 70.17298,0.0258 c -2.39553,-0.062 -4.84966,0.53552 -7.39232,1.52808 a 31.5,31.5 0 0 1 -2.6913,4.48706 c 4.44273,-2.43138 9.72755,-4.32418 15.02233,-1.23042 l 1.39217,-2.87476 c -2.08124,-1.27678 -4.18354,-1.85441 -6.33088,-1.90996 z" />
          <path
             style="fill:#ffffff;fill-opacity:1;stroke:none;stroke-width:0.264583px;stroke-linecap:butt;stroke-linejoin:miter;stroke-opacity:1"
             d="m 156.16295,170.2295 c -6.65997,-4.08572 -13.53224,-1.01376 -21.42406,3.42437 -7.89182,4.43812 -11.77389,7.74476 -20.19706,7.82444 -8.42318,0.0797 -15.87322,-5.11365 -19.938749,-7.59849 -4.06553,-2.48485 -13.89255,-9.09179 -22.069853,-3.23069 l 1.601708,2.55576 c 7.276521,-4.37604 15.571011,1.3622 19.996265,4.25324 4.425253,2.89103 10.239699,7.32766 20.215819,7.44122 9.97612,0.11356 16.14755,-5.01799 21.2031,-8.07885 5.05555,-3.06087 12.12981,-7.85971 19.2206,-3.71653 z m -51.86796,14.65152"
             id="path1-0-7-0"
             sodipodi:nodetypes="czzzcczzzcc" />
          <path
             id="path1-5-6-2"
             style="fill:#ffffff;fill-opacity:1;stroke:none;stroke-width:0.264583px;stroke-linecap:butt;stroke-linejoin:miter;stroke-opacity:1"
             d="m 79.65922,175.90554 c -2.395975,0.045 -4.826315,0.70698 -7.12618,2.35541 l 1.60197,2.55592 c 5.720746,-3.44041 12.042286,-0.63211 16.646529,2.13217 a 33.039669,23.437666 0 0 1 3.046842,-1.93322 c -3.102813,-1.91614 -8.509565,-5.21666 -14.169161,-5.11028 z m 70.17298,0.0258 c -4.63412,-0.11987 -9.48343,2.19991 -14.78773,5.16816 a 33.039669,23.437666 0 0 1 2.91869,1.8774 c 4.77433,-2.8414 10.77891,-5.78404 16.80775,-2.26136 l 1.39217,-2.87424 c -2.08124,-1.27679 -4.18354,-1.85441 -6.33088,-1.90996 z" />
        </g>
        <path
           id="path2-3-0"
           style="fill:#ffffff;fill-opacity:1;stroke:none;stroke-width:0.3;stroke-dasharray:none"
           d="M 31.810807,84.774844 A 28.700001,28.700001 0 0 0 3.110745,113.4749 28.700001,28.700001 0 0 0 31.810807,142.17495 28.700001,28.700001 0 0 0 60.510867,113.4749 28.700001,28.700001 0 0 0 31.810807,84.774844 Z m 0,3.70003 A 25,25 0 0 1 56.810837,113.4749 25,25 0 0 1 31.810807,138.47492 25,25 0 0 1 6.810785,113.4749 25,25 0 0 1 31.810807,88.474874 Z" />
      </g>
      <path
         id="path4-8-4-2"
         style="fill:#ffffff;fill-opacity:1;stroke:none;stroke-width:0.3;stroke-dasharray:none"
         d="m 31.810837,91.275764 c -0.31944,0.0159 -0.63851,0.0388 -0.95696,0.0684 l -4.651737,8.05742 13.639827,0.19356 h 9.2384 c -4.2009,-5.24366 -10.55069,-8.30261 -17.26953,-8.31944 z m 15.84619,22.199506 4.76353,8.25098 c 1.02288,-2.55112 1.5898,-5.33428 1.58979,-8.2514 -8.1e-4,-4.24195 -1.21757,-8.39486 -3.50538,-11.96703 h -9.56545 z M 28.267067,91.585704 c -6.995907,1.13125 -12.783877,5.45774 -15.975502,11.342546 l 4.919135,8.52005 c 3.63252,-6.65425 7.2648,-13.295936 11.056367,-19.862596 z M 11.265355,105.09664 c -1.06304,2.596 -1.65063,5.42677 -1.65403,8.37821 -3e-5,4.30945 1.23181,8.32922 3.35687,11.73426 h 9.739415 l -6.60488,-11.73384 z m 35.369212,10.12778 -6.93985,11.87192 -4.82861,8.3636 c 7.26466,-1.00057 13.40385,-5.51647 16.65422,-11.77388 z m -32.346482,11.87192 c 4.062005,5.21776 10.398085,8.57805 17.522752,8.57802 0.33165,0 0.66056,-0.0106 0.98866,-0.0251 l 4.93833,-8.553 H 23.77011 Z"
         sodipodi:nodetypes="ccccccccccccccccccccccccccccscccc" />
    </g>
    <g
       id="g4">
      <path
         d="m -9.6543979,155.11482 h 1.7120527 v 4.29883 q 0,1.02327 0.063624,1.32646 0.1098952,0.48728 0.5205565,0.78505 0.4164452,0.29236 1.1336565,0.29236 0.7287792,0 1.0989527,-0.27612 0.3701735,-0.28154 0.445365,-0.6876 0.075192,-0.40606 0.075192,-1.34811 v -4.39087 h 1.7120527 v 4.16888 q 0,1.42934 -0.1388151,2.01948 -0.138815,0.59014 -0.5147726,0.9962 -0.3701735,0.40606 -0.9948414,0.6497 -0.6246679,0.23822 -1.6310772,0.23822 -1.2146319,0 -1.8450837,-0.25988 -0.6246679,-0.26529 -0.9890574,-0.68218 -0.3643896,-0.4223 -0.4800689,-0.8825 -0.1677349,-0.68219 -0.1677349,-2.01406 z m 8.5833988,7.93713 v -7.93713 h 1.66578091 l 3.47037699,5.30044 v -5.30044 h 1.5905894 v 7.93713 H 3.9379117 l -3.4183214,-5.17591 v 5.17591 z m 8.531343,-7.93713 h 3.1291241 q 1.058464,0 1.613724,0.1516 0.746132,0.20573 1.278256,0.7309 0.532124,0.52518 0.809755,1.28857 0.27763,0.75798 0.27763,1.8733 0,0.97995 -0.260279,1.68921 -0.318118,0.86626 -0.908081,1.40225 -0.445365,0.40607 -1.203065,0.63346 -0.566828,0.16784 -1.515397,0.16784 H 7.4603439 Z m 1.7120527,1.3427 v 5.25714 h 1.2782554 q 0.717211,0 1.035329,-0.0759 0.416446,-0.0975 0.688291,-0.33026 0.27763,-0.23281 0.451149,-0.7634 0.173519,-0.53599 0.173519,-1.4564 0,-0.9204 -0.173519,-1.41309 -0.173519,-0.49269 -0.485852,-0.76881 -0.312334,-0.27612 -0.792403,-0.37357 -0.358606,-0.0759 -1.4055026,-0.0759 z m 6.8482104,6.59443 v -7.93713 h 6.287166 v 1.3427 h -4.575114 v 1.7596 h 4.256996 v 1.33729 h -4.256996 v 2.16025 h 4.737065 v 1.33729 z m 7.906675,0 v -7.93713 h 3.603409 q 1.359231,0 1.97233,0.21657 0.618884,0.21115 0.989058,0.75798 0.370173,0.54682 0.370173,1.25066 0,0.89333 -0.561044,1.47806 -0.561044,0.57931 -1.677349,0.73091 0.555261,0.30319 0.913866,0.66594 0.36439,0.36275 0.97749,1.28856 l 1.035329,1.54845 h -2.047523 l -1.237768,-1.72712 q -0.659371,-0.92581 -0.902297,-1.16403 -0.242927,-0.24363 -0.514773,-0.33027 -0.271847,-0.092 -0.86181,-0.092 h -0.347038 v 3.31345 z m 1.712053,-4.58037 h 1.266687 q 1.231984,0 1.538534,-0.0974 0.306551,-0.0975 0.48007,-0.33567 0.173518,-0.23823 0.173518,-0.59556 0,-0.40065 -0.231358,-0.64429 -0.225575,-0.24904 -0.64202,-0.31402 -0.208223,-0.0271 -1.249336,-0.0271 h -1.336095 z m 7.825702,4.58037 -2.024387,-7.93713 h 1.75254 l 1.278256,5.45204 1.550101,-5.45204 h 2.035955 l 1.486478,5.54408 1.301392,-5.54408 h 1.72362 l -2.05909,7.93713 h -1.816165 l -1.688917,-5.93389 -1.683132,5.93389 z m 16.970142,0 h -1.862436 l -0.740347,-1.80291 h -3.389402 l -0.699859,1.80291 h -1.816164 l 3.302643,-7.93713 h 1.810379 z m -3.15226,-3.1402 -1.16836,-2.94529 -1.145224,2.94529 z m 5.089888,3.1402 v -6.59443 h -2.516023 v -1.3427 h 6.738315 v 1.3427 H 54.08486 v 6.59443 z m 5.327029,0 v -7.93713 h 6.287166 v 1.3427 h -4.575114 v 1.7596 h 4.256996 v 1.33729 h -4.256996 v 2.16025 h 4.737065 v 1.33729 z m 7.906671,0 v -7.93713 h 3.603409 q 1.359231,0 1.972331,0.21657 0.618883,0.21115 0.989057,0.75798 0.370174,0.54682 0.370174,1.25066 0,0.89333 -0.561045,1.47806 -0.561044,0.57931 -1.677349,0.73091 0.555261,0.30319 0.913867,0.66594 0.364389,0.36275 0.977489,1.28856 l 1.035329,1.54845 h -2.047522 l -1.237769,-1.72712 q -0.659371,-0.92581 -0.902297,-1.16403 -0.242927,-0.24363 -0.514773,-0.33027 -0.271846,-0.092 -0.86181,-0.092 H 67.31856 v 3.31345 z m 1.712053,-4.58037 h 1.266687 q 1.231985,0 1.538534,-0.0974 0.30655,-0.0975 0.480069,-0.33567 0.173519,-0.23823 0.173519,-0.59556 0,-0.40065 -0.231358,-0.64429 -0.225575,-0.24904 -0.64202,-0.31402 -0.208222,-0.0271 -1.249336,-0.0271 H 67.31856 Z"
         id="text5-8-0"
         style="font-weight:bold;font-size:11.4606px;line-height:1.25;font-family:Arial;-inkscape-font-specification:'Arial Bold';letter-spacing:0px;word-spacing:0px;fill:#ffffff;stroke-width:0.264583"
         aria-label="UNDERWATER" />
      <path
         style="font-weight:bold;font-size:4.97755px;line-height:1.25;font-family:Arial;-inkscape-font-specification:'Arial Bold';letter-spacing:0px;word-spacing:0px;fill:#ffffff;stroke-width:0.264583"
         d="m 9.1618082,167.82593 0.7623859,0.20236 q -0.1753223,0.53368 -0.5844073,0.79387 -0.4064287,0.25795 -1.0333384,0.25795 -0.7756678,0 -1.2750703,-0.44252 -0.4994027,-0.44475 -0.4994027,-1.21415 0,-0.81388 0.502059,-1.26307 0.502059,-0.45142 1.3202291,-0.45142 0.7145708,0 1.1608454,0.35357 0.2656398,0.20904 0.3984596,0.6004 l -0.7783243,0.15567 q -0.069067,-0.2535 -0.2895473,-0.40027 -0.2178245,-0.14676 -0.5312792,-0.14676 -0.4329928,0 -0.7039452,0.26017 -0.2682961,0.26017 -0.2682961,0.84279 0,0.61819 0.2656397,0.88058 0.2656397,0.26241 0.6906631,0.26241 0.3134548,0 0.5392486,-0.16679 0.2257937,-0.16677 0.3240804,-0.52479 z m 4.9488668,1.19858 h -0.85536 l -0.340019,-0.74049 h -1.556648 l -0.321424,0.74049 h -0.834108 l 1.516802,-3.25996 h 0.831452 z m -1.447736,-1.28975 -0.536592,-1.2097 -0.525967,1.2097 z m 1.854165,1.28975 v -3.25996 h 1.176784 l 0.706601,2.22371 0.698632,-2.22371 h 1.17944 v 3.25996 h -0.730509 v -2.56617 l -0.773011,2.56617 h -0.757073 l -0.770355,-2.56617 v 2.56617 z m 4.542438,0 v -3.25996 h 2.887503 v 0.55148 h -2.10121 v 0.72271 h 1.955108 v 0.54925 h -1.955108 v 0.88727 h 2.175589 v 0.54925 z m 3.631295,0 v -3.25996 h 1.654934 q 0.624254,0 0.905832,0.0889 0.284235,0.0867 0.454244,0.31132 0.170009,0.22459 0.170009,0.51368 0,0.36691 -0.257671,0.60707 -0.25767,0.23794 -0.770355,0.3002 0.255015,0.12452 0.419712,0.27351 0.167353,0.14899 0.448931,0.52925 l 0.475494,0.63598 h -0.940364 l -0.568469,-0.70937 q -0.302829,-0.38025 -0.414397,-0.47809 -0.111569,-0.10007 -0.23642,-0.13565 -0.124851,-0.0378 -0.395803,-0.0378 H 23.47713 v 1.36092 z m 0.786293,-1.88126 h 0.58175 q 0.565813,0 0.706603,-0.0401 0.140788,-0.04 0.220481,-0.13787 0.07969,-0.0978 0.07969,-0.24461 0,-0.16456 -0.106258,-0.26462 -0.103603,-0.1023 -0.29486,-0.12897 -0.09564,-0.0111 -0.573782,-0.0111 h -0.613628 z m 6.651616,1.88126 h -0.855359 l -0.340019,-0.74049 H 27.37672 l -0.321424,0.74049 h -0.834109 l 1.516802,-3.25996 h 0.831452 z m -1.447736,-1.28975 -0.536592,-1.2097 -0.525966,1.2097 z m 3.174396,1.28975 v -3.25996 h 1.261788 q 0.717227,0 0.935051,0.0489 0.334706,0.0734 0.5605,0.32022 0.225794,0.24461 0.225794,0.63376 0,0.30021 -0.130164,0.50479 -0.130163,0.20458 -0.33205,0.32243 -0.199229,0.11563 -0.406428,0.15344 -0.281578,0.0467 -0.815514,0.0467 h -0.512685 v 1.22971 z m 0.786292,-2.70848 v 0.92506 h 0.430337 q 0.464869,0 0.621597,-0.0511 0.156727,-0.0512 0.244388,-0.16011 0.09031,-0.10896 0.09031,-0.2535 0,-0.1779 -0.124851,-0.29353 -0.12485,-0.11563 -0.316111,-0.14454 -0.140788,-0.0222 -0.565812,-0.0222 z m 2.845001,2.70848 v -3.25996 h 1.654935 q 0.624253,0 0.905831,0.0889 0.284234,0.0867 0.454244,0.31132 0.170009,0.22459 0.170009,0.51368 0,0.36691 -0.25767,0.60707 -0.257671,0.23794 -0.770355,0.3002 0.255014,0.12452 0.419711,0.27351 0.167353,0.14899 0.448931,0.52925 l 0.475495,0.63598 h -0.940365 l -0.568468,-0.70937 q -0.30283,-0.38025 -0.414399,-0.47809 -0.111568,-0.10007 -0.236419,-0.13565 -0.12485,-0.0378 -0.395803,-0.0378 h -0.159384 v 1.36092 z m 0.786293,-1.88126 h 0.581751 q 0.565813,0 0.706602,-0.0401 0.140789,-0.04 0.22048,-0.13787 0.07969,-0.0978 0.07969,-0.24461 0,-0.16456 -0.106258,-0.26462 -0.103602,-0.1023 -0.29486,-0.12897 -0.09563,-0.0111 -0.573781,-0.0111 h -0.613628 z m 2.980478,0.27129 q 0,-0.4981 0.177979,-0.83611 0.132819,-0.24906 0.361269,-0.44697 0.231107,-0.19791 0.504715,-0.29353 0.363926,-0.12898 0.839422,-0.12898 0.860673,0 1.376013,0.44697 0.517998,0.44697 0.517998,1.24306 0,0.78942 -0.512685,1.23638 -0.512685,0.44475 -1.3707,0.44475 -0.868643,0 -1.381326,-0.44252 -0.512685,-0.44475 -0.512685,-1.22305 z m 0.8102,-0.0222 q 0,0.5537 0.305486,0.84056 0.305486,0.28464 0.775668,0.28464 0.470182,0 0.770355,-0.28242 0.30283,-0.28463 0.30283,-0.85168 0,-0.56037 -0.294861,-0.83612 -0.292203,-0.27573 -0.778324,-0.27573 -0.48612,0 -0.783637,0.28018 -0.297517,0.27797 -0.297517,0.84057 z m 4.986056,-1.62776 h 0.783637 v 2.06361 q 0,0.40471 -0.085,0.62263 -0.114225,0.28464 -0.414398,0.45808 -0.300174,0.17124 -0.791607,0.17124 -0.576437,0 -0.887236,-0.26908 -0.310798,-0.27129 -0.313455,-0.79386 l 0.741134,-0.0712 q 0.01328,0.28019 0.09829,0.39582 0.127507,0.17568 0.387834,0.17568 0.262983,0 0.371895,-0.12453 0.108914,-0.12676 0.108914,-0.52257 z m 1.620402,3.25996 v -3.25996 h 2.887503 v 0.55148 h -2.101209 v 0.72271 h 1.955107 v 0.54925 h -1.955107 v 0.88727 h 2.175588 v 0.54925 z m 6.120339,-1.19858 0.762386,0.20236 q -0.175323,0.53368 -0.584407,0.79387 -0.406429,0.25795 -1.033339,0.25795 -0.775668,0 -1.27507,-0.44252 -0.499403,-0.44475 -0.499403,-1.21415 0,-0.81388 0.502059,-1.26307 0.502059,-0.45142 1.320229,-0.45142 0.714572,0 1.160846,0.35357 0.26564,0.20904 0.398459,0.6004 l -0.778324,0.15567 q -0.06906,-0.2535 -0.289547,-0.40027 -0.217825,-0.14676 -0.53128,-0.14676 -0.432992,0 -0.703944,0.26017 -0.268296,0.26017 -0.268296,0.84279 0,0.61819 0.265639,0.88058 0.26564,0.26241 0.690663,0.26241 0.313455,0 0.539249,-0.16679 0.225794,-0.16677 0.32408,-0.52479 z m 2.313721,1.19858 v -2.70848 h -1.155532 v -0.55148 h 3.094703 v 0.55148 h -1.152877 v 2.70848 z"
         id="text6-2-3"
         aria-label="CAMERA PROJECT" />
      <rect
         style="fill:#ffffff;fill-opacity:1;stroke:none;stroke-width:0.3;stroke-dasharray:none"
         id="rect6-9-3"
         width="13.486026"
         height="0.82140458"
         x="-9.6544037"
         y="166.98383" />
      <rect
         style="fill:#ffffff;fill-opacity:1;stroke:none;stroke-width:0.3;stroke-dasharray:none"
         id="rect6-3-4-1"
         width="13.486026"
         height="0.82140458"
         x="59.743702"
         y="166.98383" />
    </g>
  </g>
</svg>
